<svg width="570" height="337" xmlns="http://www.w3.org/2000/svg" xmlns:xlink="http://www.w3.org/1999/xlink" overflow="hidden"><defs><clipPath id="clip0"><rect x="360" y="190" width="570" height="337"/></clipPath></defs><g clip-path="url(#clip0)" transform="translate(-360 -190)"><path d="M1076.25-165.234 1098-165.234C1102.3-165.234 1106.2-162.491 1106.2-157.908 1106.2-151.776 1101.3-147.484 1094.49-147.484L1071.25-147.484Z" fill="#00853F" transform="matrix(1 0 0 1.00057 189.769 491.306)"/><path d="M1183.1-165.137 1203.63-165.137C1213.34-165.137 1213.73-158.521 1213.73-156.649 1213.73-152.26 1209.86-143.644 1198.05-143.644L1177.13-143.644C1177.13-143.644 1183.01-164.588 1183.1-165.137" fill="#00853F" transform="matrix(1 0 0 1.00057 189.769 491.306)"/><path d="M1065.99-129.057 1084.77-129.057C1093.97-129.057 1094.49-126.572 1095.74-124.442 1097-122.312 1096.42-117.826 1095.58-116.277 1094.45-114.341 1092.61-108.339 1080.87-108.339L1059.99-108.339C1059.99-108.339 1065.99-129.025 1065.99-129.057" fill="#00853F" transform="matrix(1 0 0 1.00057 189.769 491.306)"/><path d="M1264.46-184.436 1264.46-19.8168 1003.93-19.8168 1003.93-184.436 1054.05-184.436 1026.26-88.5881 1083.13-88.5881C1107.75-88.5881 1112.04-94.3325 1117.04-98.5279 1123.72-104.111 1127.31-117.407 1124.31-126.637 1122.18-133.188 1115.98-137.157 1115.3-137.351 1123.01-140.901 1127.5-148.711 1128.05-149.872 1130.89-155.778 1133.12-166.525 1126.02-175.141 1120.11-182.306 1108.62-184.306 1100.3-184.436L1161.19-184.436 1133.31-88.3945 1161.52-88.3945 1171.81-124.829 1187.95-124.829C1199.66-124.829 1198.6-117.536 1198.89-114.406L1199.79-87.6523 1225.99-87.6523C1225.99-87.6523 1224.8-117.697 1224.7-119.892 1224.35-127.605 1219.25-131.09 1214.86-131.09 1223.25-133.349 1230.54-140.965 1233.45-145.838 1236.8-151.454 1239.35-160.393 1236.03-169.268 1231.19-182.144 1218.76-184.274 1210.08-184.436Z" fill="#00853F" transform="matrix(1 0 0 1.00057 189.769 491.306)"/><path d="M1003.9-82.5357 1264.43-82.5357 1264.43-278.863 1003.9-278.863Z" fill="#FFFFFF" transform="matrix(1 0 0 1.00057 189.769 491.306)"/><path d="M2176.88-100.077 2176.88-120.085 2186.73-120.085 2186.37-154.584 2176.88-137.674 2176.88-180.272 2178.95-183.564 2210.93-183.564 2218.19-87.4909 2186.73-87.4909 2186.57-100.077ZM2336.27-155.617C2338.89-172.366 2330.59-185.985 2303.78-185.985 2279.73-185.985 2259.18-175.819 2253.3-155.262 2242.91-118.73 2301-128.702 2297.03-114.051 2295.64-109.565 2289.77-106.983 2281.83-106.983 2278.7-106.983 2275.6-107.854 2273.51-109.403 2271.28-111.114 2270.25-113.534 2270.6-116.987L2240.33-116.987C2236.01-99.7542 2248.46-84.9092 2273.86-84.9092 2300.32-84.9092 2321.95-95.7848 2328.34-118.02 2338.18-152.874 2280.25-144.063 2284.41-158.392 2285.45-161.845 2289.09-163.911 2296-163.911 2299.1-163.911 2301.71-163.394 2303.62-162.168 2305.68-160.974 2306.71-158.909 2306.39-155.617ZM2176.88-180.272 2176.88-137.674 2166.85-120.085 2176.88-120.085 2176.88-100.077 2155.1-100.077 2148-87.4909 2118.96-87.4909 2118.96-90.4276ZM2118.96-154.423C2119.12-154.939 2119.31-155.456 2119.47-156.133 2121.54-163.394 2121.54-169.236 2118.96-173.56ZM2118.96-173.56 2118.96-154.423C2115.5-144.063 2108.05-135.608 2096.66-132.704 2105.82-128.896 2111.18-126.475 2105.63-107.177 2102.17-94.5584 2100.46-90.4276 2104.27-90.4276L2103.4-87.4909 2074.16-87.4909 2074.16-102.497C2074.36-103.014 2074.52-103.724 2074.71-104.24 2076.78-111.824 2077.29-116.31 2074.16-118.73L2074.16-141.998C2082.29-142.514 2087.14-145.096 2088.88-151.131 2090.78-157.876 2086.46-161.135 2079-161.135L2074.16-161.135 2074.16-183.564 2084.55-183.564C2104.08-183.564 2114.79-180.272 2118.96-173.56M2118.96-90.4275 2117.05-87.4908 2118.96-87.4908ZM2074.16-183.564 2074.16-161.135 2064.32-161.135 2058.96-141.998 2074.16-141.998 2074.16-118.73C2072.1-120.279 2068.48-120.957 2062.58-120.957L2052.9-120.957 2043.41-87.4909 2011.78-87.4909 2039.24-183.564ZM2074.16-102.497C2072.1-94.9133 2071.23-89.3949 2071.42-87.4908L2074.16-87.4908ZM1954.53-87.6844C1976.31-88.8786 1992.39-96.8174 1998.1-116.471 2001.03-126.83 1997.94-135.802 1988.25-138.384 1995.52-142.353 2003.97-149.42 2006.75-159.425 2012.26-178.401 1996.39-183.564 1974.77-183.564L1954.53-183.564 1954.53-161.135 1965.08-161.135C1971.63-161.135 1977.86-160.974 1975.64-153.551 1974.05-147.871 1968.7-145.096 1962.5-145.096L1954.53-145.096 1954.53-127.669C1964.57-127.508 1971.63-126.992 1969.21-118.73 1967.34-111.985 1961.63-110.081 1954.53-109.92ZM1954.53-183.564 1954.53-161.135 1953.85-161.135 1949.33-145.096 1954.53-145.096 1954.53-127.669 1944.33-127.669 1939.33-109.92 1954.53-109.92 1954.53-87.6844C1952.47-87.49 1950.37-87.49 1948.3-87.49L1901.44-87.49 1928.78-183.563ZM1841.81-86.4582 1841.81-109.758C1851.13-113.373 1857.36-123.377 1861.01-135.963 1864.62-149.066 1863.23-162.878 1849.26-162.523 1846.65-162.523 1844.23-162.007 1841.81-161.135L1841.81-184.435C1846.48-185.468 1851.33-185.985 1856.17-185.985 1890.57-185.985 1899.73-161.329 1892.47-135.963 1884.86-108.887 1864.81-91.6217 1841.81-86.4582M1841.81-184.436 1841.81-161.135C1831.96-157.166 1825.9-145.806 1823.15-135.963 1819.67-123.732 1818.99-108.371 1834.19-108.371 1836.96-108.371 1839.55-108.887 1841.81-109.759L1841.81-86.4583C1837.13-85.4255 1832.28-84.9092 1827.44-84.9092 1797.21-84.9092 1782.33-103.53 1791.65-136.318 1798.75-161.49 1818.31-179.24 1841.81-184.436M1731.15-87.4909 1731.15-102.497C1731.34-103.014 1731.5-103.724 1731.66-104.24 1733.76-111.824 1734.28-116.31 1731.15-118.73L1731.15-141.998C1739.28-142.514 1744.12-145.096 1745.86-151.131 1747.77-157.876 1743.44-161.135 1735.99-161.135L1731.15-161.135 1731.15-183.564 1741.7-183.564C1773.68-183.564 1781.81-174.754 1776.46-156.133 1773.36-145.096 1765.74-135.802 1753.64-132.704 1762.8-128.896 1768.16-126.475 1762.61-107.177 1759.16-94.5584 1757.45-90.4276 1761.26-90.4276L1760.38-87.4908ZM1731.15-183.564 1731.15-161.135 1721.3-161.135 1715.95-141.998 1731.15-141.998 1731.15-118.73C1729.08-120.279 1725.47-120.957 1719.56-120.957L1709.88-120.957 1700.55-87.4911 1672.54-87.4911 1672.54-100.077 1696.42-183.564ZM1731.15-102.497C1729.08-94.9135 1728.21-89.395 1728.37-87.4909L1731.15-87.4909ZM1672.54-170.785 1676.19-183.564 1672.54-183.564ZM1416.49-161.135 1416.66-161.135C1423.4-161.135 1433.28-159.941 1430.66-150.97 1428.6-143.192 1423.08-140.288 1416.5-139.739L1416.5-117.504C1440.86-119.053 1455.38-131.639 1460.74-151.131 1466.45-170.785 1456.61-183.564 1428.95-183.564L1416.49-183.564ZM1672.54-183.564 1672.54-170.785 1668.93-158.199 1640.56-158.199 1620.52-87.4909 1588.86-87.4909 1609.09-158.199 1580.76-158.199 1587.99-183.564ZM1672.54-100.077 1668.93-87.4909 1672.54-87.4909ZM1542.55-87.4909 1462.13-87.4909 1489.62-183.564 1567.95-183.564 1561.72-161.135 1514.7-161.135 1510.73-147.355 1550.49-147.355 1544.1-124.926 1504.5-124.926 1500.18-109.92 1548.94-109.92ZM1401.62-139.739 1407.85-161.135 1416.49-161.135 1416.49-183.564 1382.61-183.564 1355.28-87.4909 1386.74-87.4909 1395.39-117.342 1411.3-117.342C1413.04-117.342 1414.75-117.342 1416.49-117.504L1416.49-139.739Z" fill="#008B4F" transform="matrix(1 0 0 1.00057 189.769 491.306)"/><path d="M1003.9-215.933 1264.43-215.933 1264.43-278.863 1003.9-278.863Z" fill="#FFCC30" transform="matrix(1 0 0 1.00057 189.769 491.306)"/><path d="M1264.46-184.436 1264.46-19.8168 1003.93-19.8168 1003.93-184.436 1054.05-184.436 1026.26-88.5881 1083.13-88.5881C1107.75-88.5881 1112.04-94.3325 1117.04-98.5279 1123.72-104.111 1127.31-117.407 1124.31-126.637 1122.18-133.188 1115.98-137.157 1115.3-137.351 1123.01-140.901 1127.5-148.711 1128.05-149.872 1130.89-155.778 1133.12-166.525 1126.02-175.141 1120.11-182.306 1108.62-184.306 1100.3-184.436L1161.19-184.436 1133.31-88.3945 1161.52-88.3945 1171.81-124.829 1187.95-124.829C1199.66-124.829 1198.6-117.536 1198.89-114.406L1199.79-87.6523 1225.99-87.6523C1225.99-87.6523 1224.8-117.697 1224.7-119.892 1224.35-127.605 1219.25-131.09 1214.86-131.09 1223.25-133.349 1230.54-140.965 1233.45-145.838 1236.8-151.454 1239.35-160.393 1236.03-169.268 1231.19-182.144 1218.76-184.274 1210.08-184.436Z" fill="#008B4F" transform="matrix(1 0 0 1.00057 189.769 491.306)"/><path d="M1076.25-165.234 1098-165.234C1102.3-165.234 1106.2-162.491 1106.2-157.908 1106.2-151.776 1101.3-147.484 1094.49-147.484L1071.25-147.484Z" fill="#00853F" transform="matrix(1 0 0 1.00057 189.769 491.306)"/><path d="M1183.1-165.137 1203.63-165.137C1213.34-165.137 1213.73-158.521 1213.73-156.649 1213.73-152.26 1209.86-143.644 1198.05-143.644L1177.13-143.644C1177.13-143.644 1183.01-164.588 1183.1-165.137" fill="#00853F" transform="matrix(1 0 0 1.00057 189.769 491.306)"/><path d="M1065.99-129.057 1084.77-129.057C1093.97-129.057 1094.49-126.572 1095.74-124.442 1097-122.312 1096.42-117.826 1095.58-116.277 1094.45-114.341 1092.61-108.339 1080.87-108.339L1059.99-108.339C1059.99-108.339 1065.99-129.025 1065.99-129.057" fill="#00853F" transform="matrix(1 0 0 1.00057 189.769 491.306)"/><path d="M400.586-200.436 418.92-200.436C422.537-200.436 425.829-198.123 425.829-194.261 425.829-189.093 421.694-185.475 415.955-185.475L396.37-185.475Z" fill="#00853F" transform="matrix(1 0 0 1.00057 189.769 491.306)"/><path d="M490.65-200.354 507.95-200.354C516.138-200.354 516.464-194.778 516.464-193.2 516.464-189.501 513.2-182.238 503.244-182.238L485.618-182.238C485.618-182.238 490.568-199.891 490.65-200.354" fill="#00853F" transform="matrix(1 0 0 1.00057 189.769 491.306)"/><path d="M391.936-169.943 407.767-169.943C415.52-169.943 415.955-167.848 417.015-166.053 418.076-164.258 417.587-160.477 416.879-159.171 415.927-157.539 414.376-152.479 404.475-152.479L386.876-152.479C386.876-152.479 391.935-169.915 391.935-169.943" fill="#00853F" transform="matrix(1 0 0 1.00057 189.769 491.306)"/><path d="M559.225-216.621 559.225-77.8656 339.627-77.8656 339.627-216.621 381.871-216.621 358.451-135.832 406.38-135.832C427.134-135.832 430.752-140.674 434.968-144.21 440.599-148.916 443.619-160.123 441.089-167.903 439.294-173.425 434.071-176.77 433.5-176.933 440.001-179.926 443.782-186.508 444.244-187.488 446.638-192.466 448.515-201.524 442.531-208.787 437.553-214.825 427.869-216.512 420.851-216.621L472.18-216.621 448.678-135.669 472.452-135.669 481.129-166.379 494.73-166.379C504.604-166.379 503.707-160.232 503.951-157.593L504.713-135.043 526.8-135.043C526.8-135.043 525.794-160.368 525.712-162.217 525.413-168.719 521.115-171.656 517.416-171.656 524.488-173.56 530.636-179.98 533.084-184.087 535.913-188.821 538.062-196.355 535.26-203.836 531.18-214.689 520.707-216.485 513.39-216.621Z" fill="#00853F" transform="matrix(1 0 0 1.00057 189.769 491.306)"/><path d="M339.6-130.73 559.198-130.73 559.198-296.212 339.6-296.212Z" fill="#FFFFFF" transform="matrix(1 0 0 1.00057 189.769 491.306)"/><path d="M339.6-243.169 559.198-243.169 559.198-296.212 339.6-296.212Z" fill="#FFCC30" transform="matrix(1 0 0 1.00057 189.769 491.306)"/><path d="M559.225-216.621 559.225-77.8656 339.627-77.8656 339.627-216.621 381.871-216.621 358.451-135.832 406.38-135.832C427.134-135.832 430.752-140.674 434.968-144.21 440.599-148.916 443.619-160.123 441.089-167.903 439.294-173.425 434.071-176.77 433.5-176.933 440.001-179.926 443.782-186.508 444.244-187.488 446.638-192.466 448.515-201.524 442.531-208.787 437.553-214.825 427.869-216.512 420.851-216.621L472.18-216.621 448.678-135.669 472.452-135.669 481.129-166.379 494.73-166.379C504.604-166.379 503.707-160.232 503.951-157.593L504.713-135.043 526.8-135.043C526.8-135.043 525.794-160.368 525.712-162.217 525.413-168.719 521.115-171.656 517.416-171.656 524.488-173.56 530.636-179.98 533.084-184.087 535.913-188.821 538.062-196.355 535.26-203.836 531.18-214.689 520.707-216.485 513.39-216.621Z" fill="#008B4F" transform="matrix(1 0 0 1.00057 189.769 491.306)"/><path d="M400.586-200.436 418.92-200.436C422.537-200.436 425.829-198.123 425.829-194.261 425.829-189.093 421.694-185.475 415.955-185.475L396.37-185.475Z" fill="#00853F" transform="matrix(1 0 0 1.00057 189.769 491.306)"/><path d="M490.65-200.354 507.95-200.354C516.138-200.354 516.464-194.778 516.464-193.2 516.464-189.501 513.2-182.238 503.244-182.238L485.618-182.238C485.618-182.238 490.568-199.891 490.65-200.354" fill="#00853F" transform="matrix(1 0 0 1.00057 189.769 491.306)"/><path d="M391.936-169.943 407.767-169.943C415.52-169.943 415.955-167.848 417.015-166.053 418.076-164.258 417.587-160.477 416.879-159.171 415.927-157.539 414.376-152.479 404.475-152.479L386.876-152.479C386.876-152.479 391.935-169.915 391.935-169.943" fill="#00853F" transform="matrix(1 0 0 1.00057 189.769 491.306)"/><path d="M637.435 24.4727 637.435 13.1783 642.991 13.1783 642.79-6.29537 637.434 3.25022 637.434-20.7959 638.6-22.654 656.653-22.654 660.752 31.5773 642.99 31.5773 642.9 24.4727ZM727.407-6.8783C728.883-16.3328 724.201-24.0203 709.063-24.0203 695.491-24.0203 683.887-18.282 680.572-6.6779 674.706 13.9435 707.496 8.31449 705.255 16.5849 704.471 19.117 701.157 20.5744 696.676 20.5744 694.909 20.5744 693.16 20.0822 691.976 19.2081 690.719 18.2425 690.136 16.8764 690.336 14.9272L673.249 14.9272C670.808 24.6549 677.839 33.0346 692.176 33.0346 707.114 33.0346 719.319 26.8955 722.926 14.3442 728.482-5.32987 695.783-0.356663 698.133-8.44495 698.716-10.3941 700.774-11.56 704.673-11.56 706.421-11.56 707.897-11.2683 708.972-10.5764 710.138-9.90229 710.721-8.73652 710.538-6.8784ZM637.435-20.7959 637.435 3.25022 631.769 13.1783 637.435 13.1783 637.435 24.4727 625.138 24.4727 621.131 31.5773 604.735 31.5773 604.735 29.9196ZM604.735-6.20425C604.826-6.49595 604.936-6.78719 605.028-7.16989 606.193-11.2686 606.193-14.5659 604.735-17.007ZM604.735-17.0068 604.735-6.20425C602.786-0.356663 598.578 4.41607 592.148 6.05558 597.321 8.20521 600.345 9.57145 597.212 20.465 595.263 27.5878 594.297 29.9196 596.447 29.9196L595.955 31.5773 579.45 31.5773 579.45 23.1065C579.566 22.8148 579.651 22.4143 579.76 22.1228 580.926 17.8419 581.217 15.3098 579.45 13.9435L579.45 0.809281C584.041 0.517578 586.773-0.939554 587.757-4.34605 588.832-8.1534 586.391-9.99329 582.183-9.99329L579.45-9.99329 579.45-22.6539 585.316-22.6539C596.337-22.6539 602.385-20.7958 604.735-17.0067M604.735 29.9197 603.66 31.5774 604.735 31.5774ZM579.45-22.6539 579.45-9.99329 573.894-9.99329 570.87 0.809281 579.45 0.809281 579.45 13.9435C578.284 13.0692 576.244 12.6865 572.91 12.6865L567.445 12.6865 562.09 31.5773 544.237 31.5773 559.74-22.654ZM579.45 23.1066C578.284 27.3875 577.793 30.5026 577.902 31.5774L579.45 31.5774ZM511.921 31.468C524.217 30.7939 533.289 26.3127 536.513 15.2187 538.171 9.37115 536.423 4.3069 530.957 2.84952 535.056 0.608879 539.829-3.38059 541.395-9.02778 544.511-19.7392 535.548-22.6539 523.343-22.6539L511.921-22.6539 511.921-9.99329 517.878-9.99329C521.576-9.99329 525.091-9.90193 523.835-5.71236 522.942-2.5062 519.918-0.939554 516.42-0.939554L511.921-0.939554 511.921 8.8975C517.586 8.9889 521.576 9.28001 520.209 13.9435 519.153 17.7508 515.928 18.8256 511.921 18.9167ZM511.921-22.6539 511.921-9.99329 511.539-9.99329 508.989-0.939554 511.922-0.939554 511.922 8.8975 506.165 8.8975 503.341 18.9167 511.922 18.9167 511.922 31.468C510.756 31.5777 509.572 31.5777 508.406 31.5777L481.955 31.5777 497.385-22.6536ZM448.29 32.1602 448.29 19.0077C453.554 16.9674 457.07 11.3203 459.129 4.21577 461.169-3.18026 460.386-10.977 452.498-10.7767 451.022-10.7767 449.656-10.485 448.29-9.9932L448.29-23.1457C450.931-23.7286 453.664-24.02 456.396-24.02 475.815-24.02 480.989-10.1025 476.89 4.21594 472.591 19.4998 461.278 29.2457 448.29 32.1604M448.29-23.1457 448.29-9.99319C442.734-7.75249 439.309-1.34018 437.76 4.21594 435.793 11.12 435.411 19.7913 443.991 19.7913 445.557 19.7913 447.015 19.4995 448.29 19.0078L448.29 32.1602C445.648 32.7432 442.916 33.0346 440.183 33.0346 423.114 33.0346 414.716 22.5236 419.981 4.01536 423.989-10.1938 435.028-20.2129 448.29-23.1458M385.825 31.5773 385.825 23.1065C385.941 22.8148 386.026 22.4142 386.116 22.1229 387.3 17.8419 387.592 15.3098 385.825 13.9436L385.825 0.80926C390.415 0.517556 393.148-0.939515 394.132-4.34607 395.206-8.15335 392.765-9.99325 388.557-9.99325L385.825-9.99325 385.825-22.6539 391.782-22.6539C409.834-22.6539 414.425-17.6807 411.401-7.16962 409.652-0.939515 405.353 4.30693 398.522 6.0557 403.695 8.20528 406.719 9.57153 403.586 20.4652 401.637 27.5879 400.671 29.9197 402.821 29.9197L402.329 31.5774ZM385.825-22.654 385.825-9.99337 380.269-9.99337 377.245 0.809208 385.825 0.809208 385.825 13.9435C384.659 13.0691 382.619 12.6864 379.285 12.6864L373.82 12.6864 368.555 31.5772 352.743 31.5772 352.743 24.4727 366.224-22.654ZM385.825 23.1065C384.659 27.3874 384.167 30.5025 384.258 31.5773L385.825 31.5773ZM352.743-15.4401 354.802-22.654 352.743-22.654ZM208.211-9.99337 208.302-9.99337C212.109-9.99337 217.683-9.31925 216.208-4.25505 215.042 0.135165 211.927 1.77465 208.211 2.08439L208.211 14.6357C221.964 13.7613 230.162 6.65679 233.186-4.34611 236.41-15.4401 230.854-22.654 215.242-22.654L208.21-22.654ZM352.743-22.654 352.743-15.4401 350.703-8.33559 334.69-8.33559 323.378 31.5773 305.507 31.5773 316.929-8.33559 300.935-8.33559 305.015-22.654ZM352.743 24.4727 350.703 31.5773 352.743 31.5773ZM279.366 31.5773 233.97 31.5773 249.491-22.654 293.703-22.654 290.187-9.99337 263.645-9.99337 261.404-2.21476 283.847-2.21476 280.24 10.4459 257.888 10.4459 255.447 18.9167 282.973 18.9167ZM199.814 2.08439 203.329-9.99337 208.211-9.99337 208.211-22.654 189.084-22.654 173.654 31.5773 191.416 31.5773 196.298 14.7268 205.278 14.7268C206.262 14.7268 207.228 14.7268 208.211 14.6354L208.211 2.08418Z" fill="#008B4F" transform="matrix(1 0 0 1.00057 189.769 491.306)"/></g></svg>