<?xml version="1.0" encoding="UTF-8" standalone="no"?>
<!-- Created with Inkscape (http://www.inkscape.org/) -->

<svg
   width="197.67719mm"
   height="38.48967mm"
   viewBox="0 0 197.67719 38.48967"
   version="1.1"
   id="svg5"
   xml:space="preserve"
   inkscape:version="1.2 (dc2aeda, 2022-05-15)"
   sodipodi:docname="drawing.svg"
   xmlns:inkscape="http://www.inkscape.org/namespaces/inkscape"
   xmlns:sodipodi="http://sodipodi.sourceforge.net/DTD/sodipodi-0.dtd"
   xmlns="http://www.w3.org/2000/svg"
   xmlns:svg="http://www.w3.org/2000/svg"><sodipodi:namedview
     id="namedview7"
     pagecolor="#ffffff"
     bordercolor="#000000"
     borderopacity="0.25"
     inkscape:showpageshadow="2"
     inkscape:pageopacity="0.0"
     inkscape:pagecheckerboard="0"
     inkscape:deskcolor="#d1d1d1"
     inkscape:document-units="mm"
     showgrid="false"
     inkscape:zoom="0.80444024"
     inkscape:cx="680.59748"
     inkscape:cy="-225.62273"
     inkscape:window-width="2497"
     inkscape:window-height="1027"
     inkscape:window-x="2560"
     inkscape:window-y="25"
     inkscape:window-maximized="0"
     inkscape:current-layer="g1062" /><defs
     id="defs2" /><g
     inkscape:label="Layer 1"
     inkscape:groupmode="layer"
     id="layer1"
     transform="translate(-5.6243716,-236.67195)"><g
       fill-rule="evenodd"
       clip-rule="evenodd"
       id="g1062"
       transform="matrix(3.4315836,0,0,3.4315836,-209.69262,-136.67601)"><path
         fill="#fbfbfb"
         d="m 73.997685,120.01387 v -11.2163 H 62.745664 v 11.2163 z"
         id="path1052"
         style="stroke-width:0.307903" /><path
         d="m 65.870883,113.71694 h 0.937874 c 0.185974,0 0.355013,0.11977 0.355013,0.31683 0,0.26572 -0.211838,0.45231 -0.505886,0.45231 h -1.003765 z m 4.613932,0.005 h 0.885838 c 0.420289,0 0.436607,0.28574 0.436607,0.36672 0,0.18966 -0.166883,0.56315 -0.677079,0.56315 h -0.902773 c 3.08e-4,0 0.252789,-0.90739 0.257407,-0.92987 z m -5.05762,1.56169 h 0.811017 c 0.397195,0 0.419672,0.10776 0.474479,0.19952 0.05419,0.0921 0.02894,0.28635 -0.0083,0.35286 -0.04742,0.0834 -0.12778,0.34393 -0.635204,0.34393 h -0.900621 z"
         fill="#278b5f"
         id="path1054"
         style="stroke-width:0.307903" /><path
         d="m 73.997685,112.88591 v 7.12796 H 62.745664 v -7.12796 h 2.165177 l -1.199592,4.1493 h 2.455837 c 1.063807,0 1.249164,-0.24848 1.465005,-0.42952 0.288505,-0.24171 0.443073,-0.81718 0.313445,-1.21776 -0.09176,-0.28327 -0.359323,-0.45477 -0.388882,-0.46309 0.332536,-0.15395 0.525899,-0.49233 0.549608,-0.54191 0.123469,-0.25648 0.218919,-0.72111 -0.08775,-1.0949 -0.254944,-0.31068 -0.750361,-0.39597 -1.109684,-0.40243 h 2.629187 l -1.203902,4.15762 h 1.218373 l 0.44492,-1.57616 h 0.69617 c 0.505885,0 0.4597,0.31437 0.472324,0.45046 l 0.03972,1.15957 1.131237,-6.2e-4 c 0,0 -0.05111,-1.30151 -0.05542,-1.39634 -0.01509,-0.33377 -0.236778,-0.48464 -0.425215,-0.48464 0.362402,-0.0979 0.67708,-0.42706 0.802704,-0.63798 0.145023,-0.24293 0.254328,-0.63027 0.110537,-1.01454 -0.208142,-0.55792 -0.744818,-0.65029 -1.119844,-0.65706 z"
         fill="#278b5f"
         id="path1056"
         style="stroke-width:0.307903" /><path
         fill="#ecb739"
         d="m 62.745664,111.52313 h 11.252021 v -2.72556 H 62.745664 Z"
         id="path1058"
         style="stroke-width:0.307903" /><path
         fill="#278b5f"
         d="m 91.667644,113.48817 0.156723,-0.54499 h -3.815539 l -0.306364,1.08997 h 1.22484 l -0.87383,3.06149 h 1.359086 l 0.873522,-3.06149 h 1.224839 z m 2.979581,-0.54499 h -1.956726 l -1.022855,3.60678 -0.156723,0.54499 h 1.366476 l 0.403045,-1.44807 h 0.410743 c 0.253713,0 0.410743,0.0296 0.500343,0.0967 0.141944,0.10469 0.119775,0.29897 0.02217,0.6272 -0.0071,0.0302 -0.01509,0.0523 -0.02217,0.0745 -0.0819,0.32884 -0.119774,0.56777 -0.111769,0.64937 h 1.381255 l 0.03726,-0.12624 c -0.164112,0 -0.0973,-0.17982 0.05942,-0.72481 0.238626,-0.83657 0,-0.94126 -0.388574,-1.10537 0.523128,-0.13425 0.844271,-0.5376 0.986215,-1.01547 0.223846,-0.80609 -0.119467,-1.17957 -1.508111,-1.17957 z m 0.18659,1.39634 c -0.07513,0.26141 -0.290969,0.37379 -0.642287,0.39596 h -0.657374 l 0.239241,-0.82887 h 0.634281 c 0.31437,0 0.507733,0.14163 0.426139,0.43291 z m -12.253631,2.75512 h 3.472226 l 0.27619,-0.97051 h -2.113141 l 0.186589,-0.64937 h 1.717793 l 0.276189,-0.97082 h -1.717793 l 0.172118,-0.59733 h 2.023541 l 0.27619,-0.96343 H 83.76007 Z m -1.433598,-4.15146 h -2.001372 l -1.186968,4.15146 h 1.366475 l 0.36579,-1.29166 h 0.686932 c 0.07451,0 0.149333,0 0.223846,-0.007 1.060419,-0.0674 1.680229,-0.61211 1.919162,-1.45607 0.238933,-0.85166 -0.1792,-1.39665 -1.373865,-1.39665 z m 0.07451,1.40404 c -0.09699,0.33623 -0.335922,0.47016 -0.619809,0.48525 h -0.634589 l 0.26141,-0.92586 h 0.388266 c 0.291277,0 0.709409,0.052 0.604722,0.44061 z m 32.309844,-1.40404 -0.0896,0.13455 -2.50172,3.89098 -0.0819,0.12624 h 1.33692 l 0.31345,-0.54499 h 1.35908 v 0.54499 h 1.35909 l -0.30606,-4.15147 h -1.38926 z m -0.0896,2.74064 h -0.42552 l 0.42583,-0.76206 0.41782,-0.73157 0.0151,1.49363 z m 6.89242,-1.53828 c 0.10407,-0.72419 -0.25372,-1.31444 -1.40435,-1.31444 -1.04533,0 -1.93394,0.44061 -2.17996,1.32922 -0.4557,1.58324 2.0608,1.15002 1.8816,1.78461 -0.0523,0.19428 -0.31406,0.30605 -0.64998,0.30605 -0.13425,0 -0.26819,-0.0373 -0.35779,-0.10407 -0.0973,-0.0751 -0.14964,-0.17981 -0.13486,-0.32884 h -1.30674 c -0.1792,0.74697 0.35132,1.38926 1.44868,1.38926 1.14263,0 2.08328,-0.47078 2.35208,-1.4336 0.43291,-1.50842 -2.06819,-1.12754 -1.88899,-1.74735 0.0373,-0.14933 0.19429,-0.23924 0.50034,-0.23924 0.12686,0 0.24602,0.0225 0.32823,0.0748 0.0819,0.0523 0.13486,0.14194 0.11177,0.28389 h 1.29997 z m -15.61348,-1.20236 h -1.99429 l -1.17988,4.15146 h 2.03155 c 0.0896,0 0.17858,0 0.26879,-0.007 0.94065,-0.0524 1.63528,-0.38858 1.8739,-1.23931 0.12686,-0.45539 0,-0.84366 -0.41782,-0.95604 0.31345,-0.16412 0.67954,-0.47756 0.7987,-0.90339 0.23154,-0.82888 -0.44769,-1.04564 -1.38095,-1.04564 z m -0.23924,2.80038 c -0.0819,0.29897 -0.32822,0.37348 -0.63459,0.38057 h -0.65737 l 0.21646,-0.76145 h 0.44061 c 0.42552,0 0.73958,0.0225 0.63489,0.38088 z m 0.2765,-1.50103 c -0.0674,0.23893 -0.29897,0.3584 -0.57485,0.3584 h -0.5607 l 0.19429,-0.69432 h 0.47817 c 0.29128,0 0.55208,0.007 0.46309,0.33592 z m -5.160152,-1.41143 c -0.208759,0 -0.417825,0.0225 -0.619502,0.0674 -1.022855,0.22415 -1.859428,0.9933 -2.172874,2.08297 -0.395656,1.41912 0.246015,2.22583 1.545675,2.22583 0.216456,0 0.42583,-0.0228 0.627199,-0.0674 0.985599,-0.22385 1.851734,-0.97051 2.187654,-2.14332 0.31406,-1.09767 -0.0816,-2.16548 -1.568152,-2.16548 z m 0.201984,2.16548 c -0.149641,0.5453 -0.417825,0.97852 -0.821486,1.13555 -0.104687,0.0373 -0.216456,0.0594 -0.33623,0.0594 -0.649369,0 -0.6272,-0.66446 -0.470169,-1.19498 0.119775,-0.42521 0.380569,-0.91816 0.806399,-1.08997 a 0.87075075,0.87075075 0 0 1 0.321143,-0.0597 c 0.605031,-0.0148 0.664456,0.58256 0.500343,1.14971 z m 11.140258,-0.79131 c 0.0151,-0.0299 0.0228,-0.052 0.0302,-0.0822 0.0896,-0.31375 0.0896,-0.56746 -0.0302,-0.75436 -0.17859,-0.29128 -0.63459,-0.42552 -1.47825,-0.42552 h -1.96411 l -1.17927,4.15146 h 1.35908 l 0.41783,-1.44807 h 0.41074 c 0.25371,0 0.41074,0.0296 0.50034,0.0967 0.14195,0.10469 0.11916,0.29897 0.0222,0.6272 -0.008,0.0302 -0.0151,0.0523 -0.0222,0.0745 -0.0896,0.32884 -0.11977,0.56778 -0.11238,0.64937 h 1.38187 l 0.0296,-0.12624 c -0.15703,0 -0.0896,-0.17982 0.0674,-0.7248 0.23862,-0.83658 0,-0.94127 -0.38858,-1.10538 0.49327,-0.12624 0.81441,-0.49203 0.95574,-0.93264 z m -1.29104,0.13425 c -0.0751,0.26141 -0.29159,0.37379 -0.64229,0.39596 h -0.65737 l 0.23862,-0.82887 h 0.6349 c 0.31375,0 0.50804,0.14163 0.42614,0.43291 z"
         id="path1060"
         style="stroke-width:0.307903" /></g></g></svg>
